<svg xmlns="http://www.w3.org/2000/svg" xmlns:xlink="http://www.w3.org/1999/xlink" viewBox="0 0 88 96.22"><defs><style>.cls-1{fill:none;}.cls-2,.cls-5{fill:#08b3ec;}.cls-3{fill:#4dccf3;}.cls-4{fill:#0a9ae1;}.cls-5{opacity:0.2;}.cls-6{clip-path:url(#clip-path);}.cls-11,.cls-7{fill:#fff;}.cls-8{fill:#1e558f;}.cls-9{clip-path:url(#clip-path-2);}.cls-10{fill:#d62462;}.cls-11{font-size:28.22px;font-family:Roboto-Regular, Roboto;}</style><clipPath id="clip-path"><path id="SVGID" class="cls-1" d="M74.84,49c1.44,6.43-2,12.66-7.58,13.93S55.9,60.05,54.45,53.62,56.4,41,62,39.69,73.39,42.61,74.84,49Z"/></clipPath><clipPath id="clip-path-2"><path id="SVGID-2" data-name="SVGID" class="cls-1" d="M51.85,24.14c.21,4.14-4.69,7.74-10.94,8.06s-11.49-2.78-11.7-6.91,4.69-7.74,10.95-8.06S51.65,20,51.85,24.14Z"/></clipPath></defs><title>Fichier 3</title><g id="Calque_2" data-name="Calque 2"><g id="OBJECTS"><path class="cls-2" d="M42.88,77.93,22.57,76.25a3.36,3.36,0,0,1-2.91-2.32l-9-28.45a3.34,3.34,0,0,1,3.46-4.33l20.31,1.68a3.34,3.34,0,0,1,2.9,2.33l9,28.44a3.33,3.33,0,0,1-3.45,4.33"/><path class="cls-3" d="M35.49,39.07,15.05,37.38A4.48,4.48,0,0,1,13.31,29L40.4,14.45a4.54,4.54,0,0,1,2.48-.51l20.45,1.69A4.48,4.48,0,0,1,65.07,24L38,38.56a4.57,4.57,0,0,1-2.49.51"/><path class="cls-4" d="M75,27.49l9.7,30.74A3.54,3.54,0,0,1,83,62.41L56.46,76.63a3.54,3.54,0,0,1-5.05-2L41.72,43.84a3.53,3.53,0,0,1,1.7-4.18L70,25.43a3.54,3.54,0,0,1,5,2.06"/><path class="cls-5" d="M73.13,90.41c0,3.21-11.51,5.81-25.69,5.81s-25.7-2.6-25.7-5.81,11.51-5.81,25.7-5.81S73.13,87.2,73.13,90.41Z"/><g class="cls-6"><path class="cls-7" d="M74.84,49c1.44,6.43-2,12.66-7.58,13.93S55.9,60.05,54.45,53.62,56.4,41,62,39.69,73.39,42.61,74.84,49Z"/><path class="cls-8" d="M62.46,59.39l-.58-2.58,2.76-.62L62.8,48l-1.64,2L59.4,48.14l3.25-3.93,1.92-.43,2.66,11.83L70,55l.58,2.59Z"/><path class="cls-4" d="M62.46,59.39l-.58-2.58,2.76-.62L62.8,48l-1.64,2L59.4,48.14l3.25-3.93,1.92-.43,2.66,11.83L70,55l.58,2.59Z"/></g><g class="cls-9"><path class="cls-7" d="M51.85,24.14c.21,4.14-4.69,7.74-10.94,8.06s-11.49-2.78-11.7-6.91,4.69-7.74,10.95-8.06S51.65,20,51.85,24.14Z"/><path class="cls-10" d="M45.28,27.53l.08,1.66-9.18.46-.06-1.2,5.18-4.2c.61-.47.9-.78.87-1.29v-.12c-.05-.84-.75-1.22-1.7-1.17h-.18c-1,.05-1.61.48-1.55,1.66l-2.87.14,0-.24c-.1-2,1.32-3.07,4.45-3.23,3.41-.17,4.66,1.12,4.72,2.33v.22c0,1.09-.44,1.66-1.44,2.47L40.15,27.8l1.27-.08Z"/><path class="cls-3" d="M45.28,27.53l.08,1.66-9.18.46-.06-1.2,5.18-4.2c.61-.47.9-.78.87-1.29v-.12c-.05-.84-.75-1.22-1.7-1.17h-.18c-1,.05-1.61.48-1.55,1.66l-2.87.14,0-.24c-.1-2,1.32-3.07,4.45-3.23,3.41-.17,4.66,1.12,4.72,2.33v.22c0,1.09-.44,1.66-1.44,2.47L40.15,27.8l1.27-.08Z"/></g><rect id="_Tranche_" data-name="&lt;Tranche&gt;" class="cls-1" width="88" height="86"/></g><g id="DESIGNED_BY_FREEPIK" data-name="DESIGNED BY FREEPIK"><text class="cls-11" transform="matrix(0.81, -0.24, 0.28, 0.96, 18.83, 69.41)">@</text></g></g></svg>